<?xml version="1.0" encoding="UTF-8"?>
<svg id="Layer_1" xmlns="http://www.w3.org/2000/svg" viewBox="0 0 32 32">
  <g>
    <path d="M21.73,10.27l-2.09,2.09c.94.93,1.51,2.22,1.51,3.64,0,2.84-2.31,5.15-5.15,5.15s-5.15-2.31-5.15-5.15,2.31-5.15,5.15-5.15v-2.95c-4.47,0-8.1,3.63-8.1,8.1s3.63,8.1,8.1,8.1,8.1-3.63,8.1-8.1c0-2.24-.91-4.26-2.37-5.73Z" style="fill: #f7d71e;"/>
    <path d="M25.9,6.1l-2.09,2.09c2,2,3.25,4.76,3.25,7.81,0,6.09-4.96,11.05-11.05,11.05s-11.05-4.96-11.05-11.05,4.96-11.05,11.05-11.05v-2.95c-7.73,0-14,6.27-14,14s6.27,14,14,14,14-6.27,14-14c0-3.87-1.57-7.37-4.1-9.9Z" style="fill: #f7d71e;"/>
    <path d="M21.73,10.27l-2.09,2.09c.94.93,1.51,2.22,1.51,3.64,0,2.84-2.31,5.15-5.15,5.15s-5.15-2.31-5.15-5.15,2.31-5.15,5.15-5.15v-2.95c-4.47,0-8.1,3.63-8.1,8.1s3.63,8.1,8.1,8.1,8.1-3.63,8.1-8.1c0-2.24-.91-4.26-2.37-5.73Z" style="fill: #f7d71e;"/>
    <path d="M21.73,10.27l-2.09,2.09c.94.93,1.51,2.22,1.51,3.64,0,2.84-2.31,5.15-5.15,5.15s-5.15-2.31-5.15-5.15,2.31-5.15,5.15-5.15v-2.95c-4.47,0-8.1,3.63-8.1,8.1s3.63,8.1,8.1,8.1,8.1-3.63,8.1-8.1c0-2.24-.91-4.26-2.37-5.73Z" style="fill: #f7d71e;"/>
  </g>
  <rect x="14.69" y="2" width="2.62" height="15.53" style="fill: #f7d71e;"/>
  <path d="M18.21,16c0,1.22-.99,2.21-2.21,2.21s-2.21-.99-2.21-2.21.99-2.21,2.21-2.21c.61,0,1.16.25,1.57.65s.65.95.65,1.57Z" style="fill: #f7d71e;"/>
</svg>